<svg width="96" height="96" xmlns="http://www.w3.org/2000/svg">

 <g>
  <title>background</title>
  <rect fill="none" id="canvas_background" height="402" width="582" y="-1" x="-1"/>
 </g>
 <g>
  <title>Layer 1</title>
  <path id="svg_2" d="m87,9l0,67.4l-38.2,10.2c-0.1,0 -0.4,0.1 -0.8,0.1s-0.8,0 -0.8,-0.1l-38.2,-10.2l0,-67.4l36.6,0l4.9,0l36.5,0m3.6,-6l-40.2,0c-1.3,0 -3.6,0 -4.9,0l-40.1,0c-1.3,0 -2.4,1.1 -2.4,2.4l0,73.1c0,1.3 1.1,2.7 2.4,3.1l40.3,10.7c0.7,0.2 1.5,0.3 2.4,0.3s1.7,-0.1 2.4,-0.3l40.3,-10.7c1.3,-0.3 2.4,-1.7 2.4,-3.1l0,-73.1c-0.2,-1.3 -1.3,-2.4 -2.6,-2.4l0,0z"/>
  <line stroke-miterlimit="10" stroke-width="4" stroke="#000000" fill="none" id="svg_3" y2="18" y1="18" x2="93" x1="3" class="st0"/>
  <path stroke-miterlimit="10" stroke-width="4" stroke="#000000" fill="none" id="svg_5" d="m4,70l41.4,11.3c1.4,0.4 3.7,0.4 5.1,0l41.5,-11.3" class="st0"/>
  <path id="svg_7" d="m29.5,55.7l3.7,-2.7c0.9,1.6 2.2,2.3 3.4,2.3c2,0 3,-1 3,-4.1l0,-15.2l5.5,0l0,15.7c0,4.6 -2.4,8.3 -7.8,8.3c-3.6,0 -6.1,-1.4 -7.8,-4.3z"/>
  <path id="svg_8" d="m48,56.7l3.2,-3.6c1.8,1.4 4.1,2.4 6.1,2.4c2.3,0 3.5,-0.9 3.5,-2.2c0,-1.5 -1.4,-1.9 -3.6,-2.8l-3.2,-1.3c-2.5,-1 -5,-2.9 -5,-6.3c0,-3.8 3.6,-6.9 8.8,-6.9c2.8,0 5.9,1.1 8,3.1l-2.8,3.3c-1.6,-1.2 -3.2,-1.8 -5.1,-1.8c-1.9,0 -3.2,0.8 -3.2,2.1c0,1.4 1.6,1.9 3.8,2.7l3.2,1.2c3,1.1 4.9,3 4.9,6.3c0,3.8 -3.4,7.2 -9.3,7.2c-3.4,-0.1 -6.8,-1.2 -9.3,-3.4z"/>
 </g>
</svg>